<?xml version="1.0" encoding="utf-8"?>
<!-- Generator: Adobe Illustrator 27.0.0, SVG Export Plug-In . SVG Version: 6.00 Build 0)  -->
<svg version="1.1"
	 id="svg10" xmlns:svg="http://www.w3.org/2000/svg" xmlns:sodipodi="http://sodipodi.sourceforge.net/DTD/sodipodi-0.dtd" xmlns:inkscape="http://www.inkscape.org/namespaces/inkscape"
	 xmlns="http://www.w3.org/2000/svg" xmlns:xlink="http://www.w3.org/1999/xlink" x="0px" y="0px" viewBox="0 0 22 22"
	 style="enable-background:new 0 0 22 22;" xml:space="preserve">
<style type="text/css">
	.st0{fill:#A7BF83;stroke:#A7BF83;stroke-width:3.000000e-02;}
	.st1{fill:none;stroke:#FFFFFF;stroke-width:1.2;stroke-linecap:round;stroke-linejoin:round;}
	.st2{fill:#FFBD48;}
	.st3{fill:#666666;}
</style>
<sodipodi:namedview  bordercolor="#666666" borderopacity="1.0" id="namedview12" inkscape:current-layer="svg10" inkscape:cx="10.986453" inkscape:cy="10.932266" inkscape:pagecheckerboard="0" inkscape:pageopacity="0.0" inkscape:pageshadow="2" inkscape:window-height="1001" inkscape:window-maximized="1" inkscape:window-width="1920" inkscape:window-x="1911" inkscape:window-y="-9" inkscape:zoom="36.909091" pagecolor="#ffffff" showgrid="false">
	</sodipodi:namedview>
<circle class="st0" cx="11" cy="11" r="10.5"/>
<g>
	<line class="st1" x1="5.1" y1="7.6" x2="16.9" y2="7.6"/>
	<line class="st1" x1="5.1" y1="14.4" x2="13.2" y2="14.4"/>
	<line class="st1" x1="5.1" y1="11" x2="16.9" y2="11"/>
</g>
<g transform="translate(1.4065934065934016 1.4065934065934016) scale(2.81 2.81)">
	<path class="st2" d="M6.7,7H5.1C5,7,4.9,6.9,4.9,6.8V5.5c0-0.1,0.1-0.2,0.2-0.2h1.6c0.1,0,0.2,0.1,0.2,0.2v1.3C6.9,6.9,6.8,7,6.7,7
		z"/>
	<path class="st3" d="M6.1,6c0-0.1-0.1-0.2-0.2-0.2C5.8,5.8,5.7,5.9,5.7,6c0,0.1,0,0.2,0.1,0.2v0.3c0,0.1,0,0.1,0.1,0.1l0,0
		c0.1,0,0.1,0,0.1-0.1V6.2C6,6.1,6.1,6.1,6.1,6z"/>
	<path class="st3" d="M5.9,4.2H5.8c-0.3,0-0.6,0.3-0.6,0.6V5h0.2V4.9c0-0.3,0.2-0.5,0.5-0.5c0.2,0,0.4,0.2,0.4,0.4v0.4h0.2V4.9
		C6.6,4.5,6.3,4.2,5.9,4.2z"/>
</g>
</svg>
