<?xml version="1.0" encoding="utf-8"?>
<!-- Generator: Adobe Illustrator 27.0.0, SVG Export Plug-In . SVG Version: 6.00 Build 0)  -->
<svg version="1.1"
	 id="svg12" xmlns:sodipodi="http://sodipodi.sourceforge.net/DTD/sodipodi-0.dtd" xmlns:inkscape="http://www.inkscape.org/namespaces/inkscape" xmlns:svg="http://www.w3.org/2000/svg"
	 xmlns="http://www.w3.org/2000/svg" xmlns:xlink="http://www.w3.org/1999/xlink" x="0px" y="0px" viewBox="0 0 22 22"
	 style="enable-background:new 0 0 22 22;" xml:space="preserve">
<style type="text/css">
	.st0{fill:#C66E4E;stroke:#C66E4E;stroke-width:3.000000e-02;}
	.st1{fill:#FFFFFF;}
	.st2{fill:#FFBD48;}
</style>
<circle class="st0" cx="11" cy="11" r="10.5"/>
<sodipodi:namedview  bordercolor="#666666" borderopacity="1.0" id="namedview14" inkscape:current-layer="svg12" inkscape:cx="10.986453" inkscape:cy="10.932266" inkscape:pagecheckerboard="0" inkscape:pageopacity="0.0" inkscape:pageshadow="2" inkscape:window-height="1121" inkscape:window-maximized="1" inkscape:window-width="1920" inkscape:window-x="-9" inkscape:window-y="-9" inkscape:zoom="36.909091" pagecolor="#ffffff" showgrid="false">
	</sodipodi:namedview>
<g transform="translate(1.4065934065934016 1.4065934065934016) scale(2.81 2.81)">
	<path class="st1" d="M3.4,1.3C2.5,1.3,1.8,2.1,1.8,3c0,0.4,0.1,0.8,0.4,1.1l1.3,1.5L4.7,4c0.2-0.3,0.4-0.6,0.4-1
		C5.1,2.1,4.3,1.3,3.4,1.3z M3.4,3.6C3,3.6,2.7,3.3,2.7,2.9S3,2.2,3.4,2.2s0.7,0.3,0.7,0.7S3.8,3.6,3.4,3.6z"/>
</g>
<g>
	<rect x="16.3" y="17.2" width="3.3" height="3.3"/>
	<g id="XMLID_6_">
		<path id="XMLID_11_" class="st2" d="M20.8,15.6h-0.5v-0.9c0-1.2-1.1-2.2-2.4-2.2s-2.4,1-2.4,2.2v0.9h-0.5c-0.5,0-0.9,0.4-0.9,0.9
			v4.4c0,0.5,0.4,0.9,0.9,0.9h5.7c0.5,0,0.9-0.4,0.9-0.9v-4.4C21.8,16.1,21.4,15.6,20.8,15.6z M18,19.6c-0.5,0-0.9-0.4-0.9-0.9
			s0.4-0.9,0.9-0.9s0.9,0.4,0.9,0.9S18.5,19.6,18,19.6z M19.5,15.6h-2.9v-0.9c0-0.8,0.7-1.4,1.5-1.4s1.5,0.6,1.5,1.4V15.6z"/>
	</g>
</g>
</svg>
