<?xml version="1.0" encoding="utf-8"?>
<!-- Generator: Adobe Illustrator 27.0.0, SVG Export Plug-In . SVG Version: 6.00 Build 0)  -->
<svg version="1.1"
	 id="svg6" xmlns:inkscape="http://www.inkscape.org/namespaces/inkscape" xmlns:sodipodi="http://sodipodi.sourceforge.net/DTD/sodipodi-0.dtd" xmlns:svg="http://www.w3.org/2000/svg"
	 xmlns="http://www.w3.org/2000/svg" xmlns:xlink="http://www.w3.org/1999/xlink" x="0px" y="0px" viewBox="0 0 22 22"
	 style="enable-background:new 0 0 22 22;" xml:space="preserve">
<style type="text/css">
	.st0{fill:none;stroke:#A9A9A9;stroke-linecap:round;stroke-linejoin:round;}
	.st1{fill:#A7BF83;stroke:#A7BF83;stroke-width:3.000000e-02;}
</style>
<sodipodi:namedview  bordercolor="#666666" borderopacity="1.0" id="namedview8" inkscape:current-layer="svg6" inkscape:cx="10.986453" inkscape:cy="10.742611" inkscape:pagecheckerboard="0" inkscape:pageopacity="0.0" inkscape:pageshadow="2" inkscape:window-height="1001" inkscape:window-maximized="1" inkscape:window-width="1920" inkscape:window-x="1911" inkscape:window-y="-9" inkscape:zoom="36.909091" pagecolor="#ffffff" showgrid="false">
	</sodipodi:namedview>
<path id="path4" class="st0" d="M5,9.5h12 M5,6.5h10 M5,12.5h12 M5,15.5h8"/>
<path id="path1057" class="st1" d="M10.5,22c-1.8-0.1-3.6-0.6-5.2-1.6c-2.8-1.7-4.7-4.6-5.2-7.8c-0.1-1-0.1-2.3,0-3.3
	c0.7-4.6,4.4-8.3,9-9.1c1.2-0.2,2.5-0.2,3.6,0c3.5,0.6,6.5,2.8,8.1,5.9c0.9,1.7,1.2,3.5,1.2,5.4c-0.1,3.6-2.1,7-5.3,8.9
	c-1.5,0.9-3.4,1.5-5.1,1.6c-0.2,0-0.4,0-0.5,0C11,22,10.8,22,10.5,22z M12,21c2.8-0.3,5.4-1.8,7.1-4.1c0.9-1.2,1.5-2.6,1.7-4.1
	c0.2-1.2,0.2-2.5,0-3.6c-0.7-3.8-3.6-6.9-7.4-7.9C12.1,1,10.6,0.9,9.2,1.2c-1.6,0.3-3.1,1-4.5,2C4.3,3.5,3.5,4.3,3.2,4.7
	c-1.1,1.4-1.7,2.8-2,4.5C1,10.1,0.9,11.2,1,12c0.3,2.9,1.8,5.4,4.1,7.1c0.8,0.6,1.8,1.1,2.7,1.4C9.3,21,10.6,21.1,12,21z"/>
</svg>
