<?xml version="1.0" encoding="utf-8"?>
<!-- Generator: Adobe Illustrator 27.0.0, SVG Export Plug-In . SVG Version: 6.00 Build 0)  -->
<svg version="1.1"
	 id="svg12" xmlns:inkscape="http://www.inkscape.org/namespaces/inkscape" xmlns:sodipodi="http://sodipodi.sourceforge.net/DTD/sodipodi-0.dtd" xmlns:svg="http://www.w3.org/2000/svg"
	 xmlns="http://www.w3.org/2000/svg" xmlns:xlink="http://www.w3.org/1999/xlink" x="0px" y="0px" viewBox="0 0 22 22"
	 style="enable-background:new 0 0 22 22;" xml:space="preserve">
<style type="text/css">
	.st0{fill:none;stroke:#DB9856;stroke-linecap:round;stroke-linejoin:round;}
	.st1{fill:#DB9856;}
	.st2{fill:#A9A9A9;}
	.st3{fill:#A7BF83;stroke:#A7BF83;stroke-width:3.000000e-02;}
</style>
<sodipodi:namedview  bordercolor="#666666" borderopacity="1.0" id="namedview14" inkscape:current-layer="svg12" inkscape:cx="10.986453" inkscape:cy="10.932266" inkscape:pagecheckerboard="0" inkscape:pageopacity="0.0" inkscape:pageshadow="2" inkscape:window-height="1121" inkscape:window-maximized="1" inkscape:window-width="1920" inkscape:window-x="-9" inkscape:window-y="-9" inkscape:zoom="36.909091" pagecolor="#ffffff" showgrid="false">
	</sodipodi:namedview>
<path id="path4" class="st0" d="M20.5,15.5c0-1.1-0.9-2-2-2s-2,0.9-2,2"/>
<path id="path6" class="st1" d="M21.5,16h-6c-0.3,0-0.5,0.2-0.5,0.5v5c0,0.3,0.2,0.5,0.5,0.5h6c0.3,0,0.5-0.2,0.5-0.5v-5
	C22,16.2,21.8,16,21.5,16z M18.5,20c-0.6,0-1-0.4-1-1s0.4-1,1-1s1,0.4,1,1S19.1,20,18.5,20z"/>
<path id="path10" class="st2" d="M10.5,17l0.5,3l0.5-3v-4h-1V17z"/>
<path id="path870" class="st3" d="M7,12l1-1V8.5V6H7.7C7.1,6,6.8,5.9,6.5,5.6C6.3,5.4,6.2,5.2,6.1,5C6,4.7,6,4.3,6.1,4
	c0.2-0.5,0.6-0.9,1.1-1C7.5,3,14.5,3,14.8,3c0.5,0.1,0.9,0.5,1.1,1c0.1,0.3,0.1,0.7,0,1c-0.2,0.4-0.5,0.8-0.9,0.9
	C14.8,6,14.7,6,14.4,6L14,6v2.5V11l1,1l1,1H11H6.1L7,12z"/>
<path id="path909" class="st3" d="M10.5,22c-3.3-0.1-6.3-1.8-8.3-4.4c-1.1-1.4-1.8-3.2-2.1-5C0,11.8,0,10.7,0.1,9.9
	c0.4-3.2,2-6,4.6-7.9c1.5-1.1,3.3-1.7,5.2-2C10.4,0,11.5,0,12,0.1c1.6,0.2,3.1,0.6,4.4,1.4c0.4,0.2,1,0.7,1.4,1
	c0.5,0.4,1.3,1.2,1.7,1.6c1.4,1.8,2.2,3.7,2.4,6c0,0.5,0,1.5,0,2c0,0.5-0.1,0.6-0.2,0.7c-0.1,0.2-0.4,0.2-0.6,0.1
	c-0.1-0.1-0.2-0.2-0.3-0.3c0,0,0-0.3,0-0.6c0.1-0.8,0.1-1,0-1.5c0-0.8-0.1-1.3-0.3-2c-0.7-2.6-2.3-4.8-4.6-6.1
	c-0.3-0.2-1.1-0.5-1.4-0.7C13,1.1,11.3,0.9,9.6,1.1C7.4,1.4,5.5,2.4,3.9,3.9C2.3,5.6,1.3,7.6,1.1,10c0,0.4,0,1.6,0,2
	c0.3,2.4,1.3,4.5,2.9,6.1c1.8,1.8,4.1,2.8,6.6,2.9c0.9,0,1.7,0,2.5-0.2c0.5-0.1,0.6-0.1,0.7,0c0.3,0.2,0.3,0.5,0.1,0.7
	c-0.1,0.1-0.2,0.1-0.7,0.2C12.3,21.9,11.5,22,10.5,22z"/>
</svg>
