<?xml version="1.0" encoding="utf-8"?>
<!-- Generator: Adobe Illustrator 27.0.0, SVG Export Plug-In . SVG Version: 6.00 Build 0)  -->
<svg version="1.1" id="Livello_1" xmlns="http://www.w3.org/2000/svg" xmlns:xlink="http://www.w3.org/1999/xlink" x="0px" y="0px"
	 viewBox="0 0 32 32" style="enable-background:new 0 0 32 32;" xml:space="preserve">
<style type="text/css">
	.st0{fill-rule:evenodd;clip-rule:evenodd;fill:#E6E6E6;}
</style>
<path id="_xD83D__xDD39_Icon-Color" class="st0" d="M16,5.8c-0.7,0-1.2,0.5-1.2,1.2v9.7c0,0.7,0.5,1.2,1.2,1.2
	c0.7,0,1.2-0.5,1.2-1.2V7C17.2,6.4,16.7,5.8,16,5.8z M22.2,9.3c-0.5,0.5-0.5,1.2,0,1.7c1.4,1.4,2.2,3.4,2.3,5.5
	c0.1,4.6-3.7,8.6-8.3,8.7c-4.7,0.1-8.6-3.7-8.6-8.4c0-2.2,0.9-4.2,2.3-5.7c0.4-0.5,0.4-1.2,0-1.7c-0.5-0.5-1.3-0.5-1.7,0
	c-1.7,1.9-2.8,4.3-2.9,7.1c-0.2,5.9,4.6,11,10.5,11.2c6.2,0.2,11.2-4.7,11.2-10.9c0-2.9-1.1-5.4-2.9-7.4C23.5,8.8,22.7,8.8,22.2,9.3
	z"/>
</svg>
