<?xml version="1.0" encoding="utf-8"?>
<!-- Generator: Adobe Illustrator 27.0.0, SVG Export Plug-In . SVG Version: 6.00 Build 0)  -->
<svg version="1.1" id="Livello_1" xmlns="http://www.w3.org/2000/svg" xmlns:xlink="http://www.w3.org/1999/xlink" x="0px" y="0px"
	 viewBox="0 0 32 32" style="enable-background:new 0 0 32 32;" xml:space="preserve">
<style type="text/css">
	.st0{fill-rule:evenodd;clip-rule:evenodd;fill:#E6E6E6;}
	.st1{fill:#E6E6E6;}
</style>
<path id="_xD83D__xDD39_-Icon-Color_00000010286008856532622110000001011712312249463462_" class="st0" d="M25.5,13.3
	c-0.9-4.7-4.8-8.2-9.5-8.2c-3.8,0-7,2.2-8.6,5.5c-3.9,0.4-6.9,3.9-6.9,8.1c0,4.5,3.5,8.1,7.8,8.1h16.9c3.6,0,6.5-3,6.5-6.8
	C31.6,16.5,28.9,13.6,25.5,13.3z M25.1,24.1H8.2c-2.9,0-5.2-2.4-5.2-5.4c0-2.8,2-5.1,4.6-5.4L9,13.2l0.6-1.3c1.2-2.5,3.6-4,6.3-4
	c3.4,0,6.3,2.5,7,6l0.4,2l2,0.1c2,0.1,3.6,1.9,3.6,4C29,22.3,27.2,24.1,25.1,24.1z"/>
<g>
	<path class="st1" d="M16,11.3l-4.9,4.9c-0.5,0.5-0.5,1.3,0,1.8c0.5,0.5,1.3,0.5,1.8,0l1.9-1.9v4.6c0,0.7,0.6,1.3,1.3,1.3
		c0.7,0,1.3-0.6,1.3-1.3v-4.6l1.9,1.9c0.2,0.2,0.6,0.4,0.9,0.4s0.6-0.1,0.9-0.4c0.5-0.5,0.5-1.3,0-1.8L16,11.3z"/>
</g>
</svg>
