<?xml version="1.0" encoding="utf-8"?>
<!-- Generator: Adobe Illustrator 27.0.0, SVG Export Plug-In . SVG Version: 6.00 Build 0)  -->
<svg version="1.1"
	 id="svg4" xmlns:inkscape="http://www.inkscape.org/namespaces/inkscape" xmlns:sodipodi="http://sodipodi.sourceforge.net/DTD/sodipodi-0.dtd" xmlns:svg="http://www.w3.org/2000/svg"
	 xmlns="http://www.w3.org/2000/svg" xmlns:xlink="http://www.w3.org/1999/xlink" x="0px" y="0px" viewBox="0 0 20 20"
	 style="enable-background:new 0 0 20 20;" xml:space="preserve">
<style type="text/css">
	.st0{fill:#A1C17C;stroke:#A1C17C;stroke-width:3.000000e-02;}
</style>
<sodipodi:namedview  bordercolor="#666666" borderopacity="1.0" id="namedview6" inkscape:current-layer="svg4" inkscape:cx="9.9876847" inkscape:cy="9.9384236" inkscape:pagecheckerboard="0" inkscape:pageopacity="0.0" inkscape:pageshadow="2" inkscape:window-height="1121" inkscape:window-maximized="1" inkscape:window-width="1920" inkscape:window-x="-9" inkscape:window-y="-9" inkscape:zoom="40.6" pagecolor="#ffffff" showgrid="false">
	</sodipodi:namedview>
<path id="path862" class="st0" d="M15.3,17c-0.2,0-0.5-0.2-0.6-0.3c-0.1-0.1-0.6-0.4-2-1.1c-1-0.6-1.9-1-1.9-1c0,0,0,0.1-0.1,0.1
	c-0.2,0.5-0.7,0.9-1.2,1.2c-0.6,0.2-1.2,0.3-1.8,0c-0.4-0.1-0.6-0.3-0.9-0.6c-0.4-0.4-0.5-0.7-0.7-1.2C6,13.8,6,13.2,6.1,13
	c0.1-0.2,0.2-0.5,0.3-0.7c0-0.1,0.1-0.1,0.1-0.1c0,0-1.9-1.1-1.9-1.1c0,0-0.9,0.4-2,1l-1.9,1l-0.1,0c-0.2,0-0.4-0.2-0.4-0.4
	c0-0.1,0-5,0-5.2C0.1,7.2,0.2,7,0.5,7l0.1,0l1.9,1c1.1,0.5,1.9,1,2,1c0,0,2.3-1.2,5-2.7c3.9-2.1,5-2.8,5.1-2.8
	c0.6-0.5,1.4-0.4,2,0.3c0.3,0.4,0.7,1.2,0.7,1.5c0,0.4-0.4,0.6-0.7,0.4c-0.1-0.1-0.2-0.1-0.3-0.5c-0.1-0.3-0.2-0.5-0.4-0.8
	C15.8,4.2,15.6,4,15.6,4c0,0-0.1,0.1-0.2,0.1c-0.2,0.1-0.2,0.1-0.3,0.2c-0.5,0.8-0.9,2.6-1,4.6c-0.1,2.7,0.3,5.5,1,6.7
	c0.1,0.1,0.1,0.1,0.3,0.2c0.1,0.1,0.2,0.1,0.2,0.1c0,0,0.2-0.2,0.3-0.3c0.1-0.2,0.2-0.4,0.4-0.8c0.1-0.3,0.2-0.4,0.3-0.5
	c0.3-0.2,0.7,0,0.7,0.4c0,0.2-0.4,1.1-0.7,1.5c-0.3,0.4-0.6,0.6-0.9,0.6C15.5,17,15.5,17,15.3,17z M8.9,15c0.3-0.1,0.5-0.2,0.7-0.4
	c0.2-0.2,0.4-0.4,0.4-0.5c0,0-0.5-0.3-1.3-0.7l-1.3-0.7l0,0.1C7.1,12.8,7,13.2,7,13.5C7,14.5,7.9,15.2,8.9,15z M13.6,14.5
	c-0.1-0.2-0.2-0.6-0.2-0.9c-0.5-2.6-0.4-6,0.2-8.2c0.1-0.2,0.1-0.4,0.1-0.4c0,0-2,1.1-4.5,2.4C6.3,9.1,4.6,10,4.6,10
	c0,0-0.1,0-0.1,0c0,0,0,0,0.1,0c0,0,1.7,0.9,4.6,2.5c2.5,1.4,4.5,2.5,4.5,2.4C13.7,14.9,13.6,14.7,13.6,14.5z M2.7,10.9
	C3.6,10.4,4.4,10,4.4,10s0.1,0,0.1,0c0,0,0,0-0.1,0S3.6,9.6,2.7,9.1C1.8,8.7,1,8.3,1,8.3c0,0,0,0.8,0,1.7c0,0.9,0,1.7,0,1.7
	C1,11.7,1.8,11.3,2.7,10.9z"/>
<path id="path901" class="st0" d="M15.4,10.5C15.2,10.4,15,10.2,15,10c0-0.2,0.1-0.3,0.2-0.4l0.1-0.1h2.2h2.2l0.1,0.1
	c0.3,0.2,0.3,0.6,0,0.8l-0.1,0.1l-2.1,0C16.4,10.5,15.4,10.5,15.4,10.5z"/>
<path id="path940" class="st0" d="M16.3,7.9C16.1,7.8,16,7.6,16,7.4c0-0.1,0.1-0.2,1.1-1.2c0.6-0.6,1.1-1.1,1.2-1.1
	c0.1-0.1,0.4-0.1,0.5,0C18.9,5.2,19,5.4,19,5.5c0,0.2,0,0.2-1.1,1.3c-0.7,0.7-1.1,1.1-1.2,1.1C16.6,8,16.4,8,16.3,7.9z"/>
<path id="path979" class="st0" d="M18.3,14.9c0,0-0.6-0.5-1.1-1.1c-1-1-1.1-1.1-1.1-1.2C16,12.3,16.2,12,16.5,12c0.1,0,0.2,0,0.2,0
	c0.1,0,0.5,0.4,1.2,1.1c1.1,1.1,1.1,1.1,1.1,1.3c0,0.1-0.1,0.3-0.2,0.4C18.7,15,18.7,15,18.5,15C18.4,15,18.3,15,18.3,14.9z"/>
</svg>
