<?xml version="1.0" encoding="utf-8"?>
<!-- Generator: Adobe Illustrator 27.0.0, SVG Export Plug-In . SVG Version: 6.00 Build 0)  -->
<svg version="1.1" id="Livello_1" xmlns="http://www.w3.org/2000/svg" xmlns:xlink="http://www.w3.org/1999/xlink" x="0px" y="0px"
	 viewBox="0 0 32 32" style="enable-background:new 0 0 32 32;" xml:space="preserve">
<style type="text/css">
	.st0{fill:#E6E6E6;}
</style>
<path class="st0" d="M28.9,8.3c0,0.7-0.6,1.3-1.3,1.3h-6.7c-0.7,2-2.9,3.1-4.9,2.4c-1.1-0.4-2-1.3-2.4-2.4H4.4
	C3.7,9.6,3.1,9,3.1,8.3S3.7,7,4.4,7h9.3c0.7-2,2.9-3.1,4.9-2.4c1.1,0.4,2,1.3,2.4,2.4h6.7C28.3,7,28.9,7.6,28.9,8.3z M16,8.3
	c0,0.7,0.6,1.3,1.3,1.3s1.3-0.6,1.3-1.3S18,7,17.3,7S16,7.6,16,8.3z M28.9,16c0,0.7-0.6,1.3-1.3,1.3h-17c-0.7,2-2.9,3.1-4.9,2.4
	s-3.1-2.9-2.4-4.9s2.9-3.1,4.9-2.4c1.1,0.4,2,1.3,2.4,2.4h17C28.3,14.7,28.9,15.3,28.9,16z M5.7,16c0,0.7,0.6,1.3,1.3,1.3
	s1.3-0.6,1.3-1.3S7.7,14.7,7,14.7S5.7,15.3,5.7,16z M28.9,23.7c0,0.7-0.6,1.3-1.3,1.3h-1.5c-0.7,2-2.9,3.1-4.9,2.4
	c-1.1-0.4-2-1.3-2.4-2.4H4.4c-0.7,0-1.3-0.6-1.3-1.3c0-0.7,0.6-1.3,1.3-1.3h14.4c0.7-2,2.9-3.1,4.9-2.4c1.1,0.4,2,1.3,2.4,2.4h1.5
	C28.3,22.4,28.9,23,28.9,23.7z M21.2,23.7c0,0.7,0.6,1.3,1.3,1.3s1.3-0.6,1.3-1.3c0-0.7-0.6-1.3-1.3-1.3S21.2,23,21.2,23.7z"/>
</svg>
